# xmcd
# 
# Track frame offsets:
#     150
#     13883
#     39785
#     75369
#     110800
#     127956
#     162735
# 
# Disc length: 2694
# 
# Revision: 0
# Processed by: cddbd v1.5.2PL0 Copyright (c) Steve Scherf et al.
# Submitted via: BonkEnc v1.0.5
# 
DISCID=500a8407
DTITLE=Supafly Inc. - Moving Too Fast [CDs)
DYEAR=2006
DGENRE=House
TTITLE0=Moving Too Fast (Radio Edit)
TTITLE1=Moving Too Fast (Northwest Remix)
TTITLE2=Moving Too Fast (Freemasons Full Vocal Remix)
TTITLE3=Moving Too Fast (Ian Carey Remix)
TTITLE4=Moving Too Fast (Original)
TTITLE5=Moving Too Fast Delinquent Remix)
TTITLE6=Data track
EXTD=
EXTT0=
EXTT1=
EXTT2=
EXTT3=
EXTT4=
EXTT5=
EXTT6=
PLAYORDER=
